# xmcd
#
# Track frame offsets:
#	150
#	21410
#	46071
#	68144
#	87787
#	112661
#	129083
#	144743
#	163732
#
# Disc length: 2466 seconds
#
# Revision: 15
# Processed by: cddbd v1.5.2PL0 Copyright (c) Steve Scherf et al.
# Submitted via: Jack! The Knife 20 Magnifico
#
DISCID=6c09a009
DTITLE=Saxon - Rock The Nations
DYEAR=1986
DGENRE=Heavy Metal
TTITLE0=Rock The Nations
TTITLE1=Battle Cry
TTITLE2=Waiting For The Night
TTITLE3=We Came Here To Rock
TTITLE4=You Ain't No Angel
TTITLE5=Running Hot
TTITLE6=Party 'til You Puke
TTITLE7=Empty Promises
TTITLE8=Northern Lady
EXTD=Gary Lyons
EXTT0=Byford, Quinn, Oliver, Glockler
EXTT1=Byford, Quinn, Oliver, Glockler
EXTT2=Byford, Glockler
EXTT3=Byford, Quinn, Oliver, Glockler
EXTT4=Byford, Quinn, Oliver, Glockler
EXTT5=Byford, Quinn, Oliver, Dawson, Glockler
EXTT6=Byford, Quinn, Oliver, Glockler
EXTT7=Byford, Quinn, Oliver, Glockler
EXTT8=Byford, Quinn, Oliver, Glockler
PLAYORDER=
